<svg id="Layer_1" data-name="Layer 1" xmlns="http://www.w3.org/2000/svg" xmlns:xlink="http://www.w3.org/1999/xlink"
    viewBox="0 0 728.5 375.3" width='300px' heigth='300px'>
    <defs>
        <linearGradient id="linear-gradient" x1="681.36" y1="28.07" x2="26.44" y2="380.09"
            gradientUnits="userSpaceOnUse">
            <stop offset="0.02" stop-color="#172060" />
            <stop offset="1" stop-color="#7443de" />
        </linearGradient>
        <clipPath id="clip-path" transform="translate(0 0.1)">
            <path
                d="M464.7,78.1a14.3,14.3,0,0,0-7.9,13.8,18.4,18.4,0,0,0,9.6,14.7,17.6,17.6,0,0,0,11.9,1.6,18.1,18.1,0,0,0,9.8-5.9,17.3,17.3,0,0,0,4.5-12,18.3,18.3,0,0,0-19.8-16.5,16.5,16.5,0,0,0-3.2.6,17.4,17.4,0,0,0-10.7,9.7"
                fill="none" />
        </clipPath>
        <clipPath id="clip-path-2" transform="translate(0 0.1)">
            <path
                d="M637,290.9a9.9,9.9,0,0,0-10.8-.8,12.4,12.4,0,0,0-6.2,10.2,12.1,12.1,0,0,0,2.5,7.8,12.3,12.3,0,0,0,6.5,4.2,11.2,11.2,0,0,0,8.6-.8,12.4,12.4,0,0,0,4.4-16.9l-1.3-1.8a12.1,12.1,0,0,0-9.1-3.7"
                fill="none" />
        </clipPath>
        <clipPath id="clip-path-3" transform="translate(0 0.1)">
            <path
                d="M688.3,142.4a5.8,5.8,0,0,0-6.3-.5,7.3,7.3,0,0,0-3.6,5.9,6.8,6.8,0,0,0,1.4,4.6,7.5,7.5,0,0,0,3.8,2.5,7,7,0,0,0,5.1-.5,7.3,7.3,0,0,0,2.5-9.9l-.8-1a6.4,6.4,0,0,0-5.2-2.2"
                fill="none" />
        </clipPath>
        <clipPath id="clip-path-4" transform="translate(0 0.1)">
            <path
                d="M444.1,305a19.8,19.8,0,0,0-21.6-1.7,25.5,25.5,0,0,0-12.4,20.3,24.5,24.5,0,0,0,5,15.6,25,25,0,0,0,13,8.6,23.1,23.1,0,0,0,17.3-1.6,24.9,24.9,0,0,0,11.9-17.7,24.3,24.3,0,0,0-5.8-19.8,23.4,23.4,0,0,0-18.1-7.4"
                fill="none" />
        </clipPath>
    </defs>
    <g id="Objects">
        <rect x="40.5" width="688" height="375.28" fill="url(#linear-gradient)" />
        <path
            d="M423.8,175.2a3.8,3.8,0,0,0-3.2,3.8,5.7,5.7,0,0,0,2.9,4.3,6.2,6.2,0,0,0,7-.8,5.2,5.2,0,0,0,.7-6.8,4.6,4.6,0,0,0-6.4-.6l-.2.2Z"
            transform="translate(0 0.1)" fill="#fff" />
        <g clip-path="url(#clip-path)">
            <path
                d="M464.7,78.1a14.3,14.3,0,0,0-7.9,13.8,18.4,18.4,0,0,0,9.6,14.7,17.6,17.6,0,0,0,11.9,1.6,18.1,18.1,0,0,0,9.8-5.9,17.3,17.3,0,0,0,4.5-12,18.3,18.3,0,0,0-19.8-16.5,16.5,16.5,0,0,0-3.2.6,17.4,17.4,0,0,0-10.7,9.7"
                transform="translate(0 0.1)" fill="#ff9566" />
            <g opacity="0.19">
                <path
                    d="M471.4,109.8c-2.9-2.8-3-8.6-1.2-11.9s6.8-5.2,9.8-8.2a15.6,15.6,0,0,0,4.4-10.8c.1-4.1-.5-10.6-4.3-13a4,4,0,0,0-5.4,1.2,2,2,0,0,0-.4.8c-1.8,4.5,2.5,9,.9,13.8s-7,5.4-9.7,8.4a15.8,15.8,0,0,0-4.4,11.3c.1,5.3,2.8,8.3,6.4,11.8s6.4-1.1,3.9-3.4Z"
                    transform="translate(0 0.1)" fill="#ffcab3" />
            </g>
            <g opacity="0.19">
                <path
                    d="M477.8,109.6c.4-2.9-.7-5.3.8-8.1s5.3-4.3,8-6.2c4.3-3.1,8-8.8,6.7-14.3a2.2,2.2,0,0,0-2.6-1.7,2.1,2.1,0,0,0-1.5,1.4c-1.1,3.2-1.7,6.4-3.9,9.2s-5.9,4.3-8.7,6.7-6.4,11-1.7,14.4a1.8,1.8,0,0,0,2.5-.4v-.2l.3-.8Z"
                    transform="translate(0 0.1)" fill="#ffcab3" />
            </g>
            <g opacity="0.19">
                <path
                    d="M469.1,71.7c2.1,3-.2,7.2-2.5,9.3s-4.4,2.8-6.6,4.2-5.5,4.6-5,8.3a1,1,0,0,0,1.2.9h.2c.3,0,.5-.2.7-.5a23.7,23.7,0,0,1,5.6-6.2c2.5-1.9,5.6-3.4,7.7-5.9s3-8-1.1-10.4a.2.2,0,0,0-.3,0h0a.4.4,0,0,0,.1.3Z"
                    transform="translate(0 0.1)" fill="#ffcab3" />
            </g>
            <g opacity="0.19">
                <path
                    d="M486.7,107.7c.1-1.2,1.5-3,2.3-3.8a10.7,10.7,0,0,1,4.1-2.8c3-1.4,1.3-5.9-1.8-5.4a10,10,0,0,0-7.1,4.5,9.3,9.3,0,0,0-1.6,3.5,11.5,11.5,0,0,0,0,3.7,2,2,0,0,0,1.9,2.1h.1a1.9,1.9,0,0,0,2.1-1.8Z"
                    transform="translate(0 0.1)" fill="#ffcab3" />
            </g>
        </g>
        <g clip-path="url(#clip-path-2)">
            <path
                d="M637,290.9a9.9,9.9,0,0,0-10.8-.8,12.4,12.4,0,0,0-6.2,10.2,12.1,12.1,0,0,0,2.5,7.8,12.3,12.3,0,0,0,6.5,4.2,11.2,11.2,0,0,0,8.6-.8,12.4,12.4,0,0,0,4.4-16.9l-1.3-1.8a12.1,12.1,0,0,0-9.1-3.7"
                transform="translate(0 0.1)" fill="#f08299" />
            <g opacity="0.19">
                <path
                    d="M619.5,304.3c.9-2.6,4.4-4.3,6.9-4.3s5.2,2.7,7.9,3.7a10.8,10.8,0,0,0,7.9-.5c2.6-1.1,6.3-3.4,6.7-6.4a2.6,2.6,0,0,0-2.3-3H646c-3.3.2-4.8,4.2-8.2,4.6s-5.3-2.7-8-3.5a10.6,10.6,0,0,0-8.2.6c-3.2,1.6-4.3,4.1-5.3,7.4s2.5,3.6,3.2,1.4Z"
                    transform="translate(0 0.1)" fill="#ffcab3" />
            </g>
            <g opacity="0.19">
                <path
                    d="M621.5,308.1c1.9-.5,3-1.9,5.2-1.8s4.1,2,6.1,3.1,7.7,2.3,10.7-.1a1.5,1.5,0,0,0,.3-2.1h0a1.3,1.3,0,0,0-1.3-.5c-2.3.2-4.4.8-6.8.3s-4.3-2.4-6.6-3.4-8.6-.7-9.3,3.2a1.2,1.2,0,0,0,1,1.4h.7Z"
                    transform="translate(0 0.1)" fill="#ffcab3" />
            </g>
            <g opacity="0.19">
                <path
                    d="M642.1,291.7c-1.2,2.2-4.4,2.1-6.4,1.3a34.6,34.6,0,0,1-4.5-2.9c-2-1.3-4.4-2-6.5-.7a.8.8,0,0,0-.3,1.1h.1a.5.5,0,0,0,.5.3,15.2,15.2,0,0,1,5.5,1.6c1.9,1,3.7,2.4,5.8,3s5.8-.5,6.1-3.7c0-.1,0-.2-.1-.2Z"
                    transform="translate(0 0.1)" fill="#ffcab3" />
            </g>
            <g opacity="0.19">
                <path
                    d="M625.2,313a8.2,8.2,0,0,1,3.1.3,10,10,0,0,1,2.8,1.7c1.8,1.5,4-.9,2.9-2.7a7.5,7.5,0,0,0-4.9-3,7.6,7.6,0,0,0-2.6.1,9.4,9.4,0,0,0-2.3,1,1.5,1.5,0,0,0-.7,1.9,1.2,1.2,0,0,0,1.7.7Z"
                    transform="translate(0 0.1)" fill="#ffcab3" />
            </g>
        </g>
        <g clip-path="url(#clip-path-3)">
            <path
                d="M688.3,142.4a5.8,5.8,0,0,0-6.3-.5,7.3,7.3,0,0,0-3.6,5.9,6.8,6.8,0,0,0,1.4,4.6,7.5,7.5,0,0,0,3.8,2.5,7,7,0,0,0,5.1-.5,7.3,7.3,0,0,0,2.5-9.9l-.8-1a6.4,6.4,0,0,0-5.2-2.2"
                transform="translate(0 0.1)" fill="#fde17e" />
            <g opacity="0.19">
                <path
                    d="M678.1,150.2a4.3,4.3,0,0,1,4.1-2.5c1.7.1,2.9,1.6,4.5,2.1a6.1,6.1,0,0,0,4.6-.3c1.5-.6,3.7-1.9,3.9-3.7a1.6,1.6,0,0,0-1.3-1.7h-.3c-1.9.1-2.8,2.4-4.8,2.6s-3.1-1.5-4.7-2a6.6,6.6,0,0,0-4.8.3c-1.8,1-2.5,2.5-3.1,4.3s1.5,2.1,1.9.9Z"
                    transform="translate(0 0.1)" fill="#fff" />
            </g>
            <g opacity="0.19">
                <path
                    d="M679.3,152.4c1.1-.3,1.7-1.1,3-1.1s2.4,1.2,3.6,1.8,4.5,1.4,6.2,0a.8.8,0,0,0,.3-1.1h-.1a.7.7,0,0,0-.8-.3,17,17,0,0,1-3.9.2c-1.5-.4-2.6-1.4-3.9-2s-5-.5-5.4,1.8a.7.7,0,0,0,.4.8h.6Z"
                    transform="translate(0 0.1)" fill="#fff" />
            </g>
            <g opacity="0.19">
                <path
                    d="M691.3,142.8c-.7,1.3-2.6,1.2-3.7.8l-2.7-1.7c-1.2-.7-2.5-1.2-3.8-.4a.6.6,0,0,0-.1.7l.3.2a9,9,0,0,1,3.2.9,15.4,15.4,0,0,0,3.4,1.7c1.8.5,3.4-.2,3.6-2.1h-.2Z"
                    transform="translate(0 0.1)" fill="#fff" />
            </g>
            <g opacity="0.19">
                <path
                    d="M681.4,155.3a3.7,3.7,0,0,1,1.8.1,9.5,9.5,0,0,1,1.7,1c1,.9,2.3-.5,1.6-1.5a3.6,3.6,0,0,0-2.8-1.8h-1.5l-1.3.7a.8.8,0,0,0-.6.8c.1.1.1.1.1.2A.9.9,0,0,0,681.4,155.3Z"
                    transform="translate(0 0.1)" fill="#ffcab3" />
            </g>
        </g>
        <g clip-path="url(#clip-path-4)">
            <path
                d="M444.1,305a19.8,19.8,0,0,0-21.6-1.7,25.5,25.5,0,0,0-12.4,20.3,24.5,24.5,0,0,0,5,15.6,25,25,0,0,0,13,8.6,23.1,23.1,0,0,0,17.3-1.6,24.9,24.9,0,0,0,11.9-17.7,24.3,24.3,0,0,0-5.8-19.8,23.4,23.4,0,0,0-18.1-7.4"
                transform="translate(0 0.1)" fill="#7443de" />
            <g opacity="0.43">
                <path
                    d="M409.2,331.7c1.7-5.2,8.7-8.7,13.9-8.5s10.2,5.4,15.6,7.3a22.1,22.1,0,0,0,15.8-1c5.2-2.3,12.7-6.8,13.4-12.9a5.1,5.1,0,0,0-4.3-5.8h-.2a2.4,2.4,0,0,0-1.2,0c-6.6.4-9.6,8.3-16.4,9.1s-10.7-5.4-16-7a22.4,22.4,0,0,0-16.5,1.2c-6.4,3.3-8.5,8.3-10.6,14.8-1.4,4.3,5.1,7.1,6.5,2.8Z"
                    transform="translate(0 0.1)" fill="#3c34b7" />
            </g>
            <g opacity="0.43">
                <path
                    d="M413.1,339.3c3.8-1.1,6.1-3.9,10.4-3.6s8.3,4,12.3,6.1c6.3,3.5,15.4,4.7,21.4-.1a2.9,2.9,0,0,0,.5-4.1h0a3,3,0,0,0-2.6-1.2c-4.6.6-8.8,1.7-13.5.7s-8.6-4.7-13.2-6.7-17.3-1.5-18.7,6.3C409.4,338.7,411.4,339.8,413.1,339.3Z"
                    transform="translate(0 0.1)" fill="#3c34b7" />
            </g>
            <g opacity="0.43">
                <path
                    d="M454.4,306.5c-2.5,4.4-8.9,4.1-12.8,2.5s-6-3.8-9-5.7-8.8-4-13.1-1.3a1.7,1.7,0,0,0-.3,2.3,2.1,2.1,0,0,0,1,.6,34.1,34.1,0,0,1,10.9,3.1c3.9,2,7.5,4.9,11.7,6,6,1.6,11.6-.9,12.2-7.3a.3.3,0,0,0-.3-.3c-.1-.1-.2,0-.3.1Z"
                    transform="translate(0 0.1)" fill="#3c34b7" />
            </g>
            <g opacity="0.54">
                <path
                    d="M420.6,349.1c1.6-.5,4.6.2,6.1.7a16.8,16.8,0,0,1,5.8,3.3c3.4,3,7.9-1.7,5.6-5.4a13.7,13.7,0,0,0-9.7-6,13,13,0,0,0-5.2.2c-1.9.4-2.9,1.3-4.6,2.1S417.2,350.3,420.6,349.1Z"
                    transform="translate(0 0.1)" fill="#3c34b7" />
            </g>
        </g>
        <g opacity="0.54">
            <path
                d="M498.3,130l.3.7a1.5,1.5,0,0,0,1.8,1.1h.1a1.6,1.6,0,0,0,1-1.1l.3-.7a1.9,1.9,0,0,0-1.3-2.3,1.8,1.8,0,0,0-2.2,1.3h0A1.7,1.7,0,0,0,498.3,130Z"
                transform="translate(0 0.1)" fill="#ededeb" />
        </g>
        <g opacity="0.54">
            <path d="M446.7,109.4a.7.7,0,0,0,.7-.7h0a.7.7,0,0,0-.7-.7h0a.9.9,0,0,0-.8.8A.8.8,0,0,0,446.7,109.4Z"
                transform="translate(0 0.1)" fill="#ededeb" />
        </g>
        <g opacity="0.54">
            <path d="M445.8,167.4a.4.4,0,0,0,.4-.4c0-.2-.2-.3-.4-.4s-.4.2-.3.4S445.6,167.4,445.8,167.4Z"
                transform="translate(0 0.1)" fill="#ededeb" />
        </g>
        <g opacity="0.54">
            <path d="M565.1,77.2a.9.9,0,0,0,1-1h0a1.1,1.1,0,0,0-1-1.1,1.3,1.3,0,0,0-1.1,1.2A1.2,1.2,0,0,0,565.1,77.2Z"
                transform="translate(0 0.1)" fill="#ededeb" />
        </g>
        <g opacity="0.54">
            <path
                d="M647.3,233.9a1.4,1.4,0,0,0,1.4-1.4h0a1.4,1.4,0,0,0-1.4-1.4,1.3,1.3,0,0,0-1.3,1.3h0a1.3,1.3,0,0,0,1.2,1.4Z"
                transform="translate(0 0.1)" fill="#ededeb" />
        </g>
        <g opacity="0.54">
            <path
                d="M575.5,294a1.4,1.4,0,0,0,1.4-1.4h0a1.4,1.4,0,0,0-1.4-1.4h0a1.5,1.5,0,0,0-1.4,1.5,1.4,1.4,0,0,0,1.4,1.4Z"
                transform="translate(0 0.1)" fill="#ededeb" />
        </g>
        <g opacity="0.54">
            <path d="M672.7,301.8a.9.9,0,0,0,1-.8v-.2a1.1,1.1,0,0,0-1-.9.9.9,0,0,0-1,1A1.1,1.1,0,0,0,672.7,301.8Z"
                transform="translate(0 0.1)" fill="#ededeb" />
        </g>
        <g opacity="0.54">
            <path d="M664,117.4a.9.9,0,0,0,.8-.8c-.1-.5-.4-.8-.8-.8a.8.8,0,1,0,0,1.6Z" transform="translate(0 0.1)"
                fill="#ededeb" />
        </g>
        <g opacity="0.54">
            <path d="M425,282.9h1a.7.7,0,0,0,.5-.8h0a.7.7,0,0,0-.5-.4l-1-.2C424,281.2,423.9,283,425,282.9Z"
                transform="translate(0 0.1)" fill="#ededeb" />
        </g>
        <g opacity="0.54">
            <path d="M482.5,275.9a.5.5,0,0,0,.5-.5c0-.2-.3-.4-.5-.4a.5.5,0,0,0-.5.5A.7.7,0,0,0,482.5,275.9Z"
                transform="translate(0 0.1)" fill="#ededeb" />
        </g>
        <g opacity="0.54">
            <path
                d="M431.6,213.7h-.5c-1.2-.1-1.1,1.9.3,1.7h.5a1,1,0,0,0,.5-1.1,1.2,1.2,0,0,0-.5-.5h-.5c-1.4-.2-1.5,1.9-.3,1.8h.5a1,1,0,0,0,.1-1.9Z"
                transform="translate(0 0.1)" fill="#ededeb" />
        </g>
        <g opacity="0.54">
            <path d="M494.2,176.4c.1,0,.1-.1.1-.2H494Z" transform="translate(0 0.1)" fill="#ededeb" />
        </g>
        <g opacity="0.54">
            <path d="M392.5,142.2a1,1,0,0,0,.9-1.1h0a.9.9,0,0,0-.9-.9,1,1,0,0,0,0,2Z" transform="translate(0 0.1)"
                fill="#ededeb" />
        </g>
        <g opacity="0.54">
            <path d="M451.7,60.3a.9.9,0,0,0,.8-.9.8.8,0,0,0-1.6,0h0A.9.9,0,0,0,451.7,60.3Z" transform="translate(0 0.1)"
                fill="#ededeb" />
        </g>
        <g opacity="0.54">
            <path d="M586.8,102.8V102a.9.9,0,0,0-.9-.9h0a.9.9,0,0,0-.8.9v.8a1.1,1.1,0,0,0,1,.9.9.9,0,0,0,.8-.9Z"
                transform="translate(0 0.1)" fill="#ededeb" />
        </g>
        <g opacity="0.54">
            <path d="M657.3,85.9a.9.9,0,0,0,1-1,.9.9,0,0,0-.8-1h-.2a1,1,0,0,0,0,2Z" transform="translate(0 0.1)"
                fill="#ededeb" />
        </g>
        <g opacity="0.54">
            <path
                d="M418.2,157.6c.1-.1.2-.3.4-.4a2.6,2.6,0,0,0-3.7-3.7h0l-.4.4a2.5,2.5,0,0,0-.2,3.5l.2.2A2.7,2.7,0,0,0,418.2,157.6Z"
                transform="translate(0 0.1)" fill="#ededeb" />
        </g>
        <g opacity="0.54">
            <path
                d="M709.1,63.7c0-.3.1-.5.1-.7a1.5,1.5,0,0,0-1.1-1.8,1.4,1.4,0,0,0-1.8,1,1.1,1.1,0,0,0,0,.8h0c0,.2.1.4.1.7a1.3,1.3,0,0,0,1.3,1.3h.1a1.3,1.3,0,0,0,1.3-1.3Z"
                transform="translate(0 0.1)" fill="#ededeb" />
        </g>
        <g opacity="0.54">
            <path
                d="M629.6,152.1l-1.4.2a3.1,3.1,0,0,0-1.8,1.4,2.6,2.6,0,0,0,0,2.7,3.1,3.1,0,0,0,1.8,1.4l1.4.2a3,3,0,0,0,2.4-3.5,3,3,0,0,0-2.4-2.4Z"
                transform="translate(0 0.1)" fill="#ededeb" />
        </g>
        <g opacity="0.54">
            <path
                d="M661.4,157a1.2,1.2,0,0,0,1.2-1.2h0a1.3,1.3,0,0,0-1.2-1.2,1.2,1.2,0,0,0-1.1,1.3h0a1.1,1.1,0,0,0,1,1.2Z"
                transform="translate(0 0.1)" fill="#ededeb" />
        </g>
        <g opacity="0.54">
            <path
                d="M460.3,287.6a1.3,1.3,0,0,0,1.3-1.3h0a1.3,1.3,0,0,0-1.3-1.3A1.2,1.2,0,0,0,459,286v.3A1.3,1.3,0,0,0,460.3,287.6Z"
                transform="translate(0 0.1)" fill="#ededeb" />
        </g>
        <g opacity="0.54">
            <path
                d="M517.3,308.7a1.3,1.3,0,0,0,1.1-1.2,1.1,1.1,0,0,0-1.1-1.1,1.3,1.3,0,0,0-1.1,1.2A1.1,1.1,0,0,0,517.3,308.7Z"
                transform="translate(0 0.1)" fill="#ededeb" />
        </g>
        <g opacity="0.54">
            <path d="M564.9,365.1a1.5,1.5,0,0,0,0-3,1.4,1.4,0,0,0-1.4,1.4v.2a1.4,1.4,0,0,0,1.4,1.4Z"
                transform="translate(0 0.1)" fill="#ededeb" />
        </g>
        <g opacity="0.54">
            <path d="M687.6,166.6a1.3,1.3,0,0,0,1.3-1.3,1.2,1.2,0,0,0-1.6-.8,1.2,1.2,0,0,0-.9.9,1.2,1.2,0,0,0,1.2,1.2Z"
                transform="translate(0 0.1)" fill="#ededeb" />
        </g>
        <g opacity="0.54">
            <path
                d="M374.3,73.3h.1l-1.2.5h-.3a2.2,2.2,0,0,0,2.7-1.6h0c0-.2.1-.3.1-.5a2.6,2.6,0,0,0-1.1-2.1,2.4,2.4,0,0,0-3.1,1.1,2.3,2.3,0,0,0,.4,2.5l-.2-.2c0-.4-.1-.8-.1-1.3v.2a1.7,1.7,0,0,0,1.1,2h.1a1.6,1.6,0,0,0,1.6-.4Z"
                transform="translate(0 0.1)" fill="#ededeb" />
        </g>
        <g opacity="0.54">
            <path d="M351.9,47.2a.5.5,0,0,0,.5-.5.6.6,0,0,0-.5-.6.6.6,0,0,0-.6.6h0A.6.6,0,0,0,351.9,47.2Z"
                transform="translate(0 0.1)" fill="#ededeb" />
        </g>
        <g opacity="0.54">
            <path d="M378,31.5h-.8a1.1,1.1,0,0,0-.7,1.2,1.1,1.1,0,0,0,.7.6h.8a1.1,1.1,0,0,0,.9-1A.9.9,0,0,0,378,31.5Z"
                transform="translate(0 0.1)" fill="#ededeb" />
        </g>
        <g opacity="0.54">
            <path
                d="M522.9,38.4a1.2,1.2,0,0,0,1.2-1.2h0a1.3,1.3,0,0,0-1.2-1.2,1.3,1.3,0,0,0-1.2,1.3,1.2,1.2,0,0,0,1.2,1.2Z"
                transform="translate(0 0.1)" fill="#ededeb" />
        </g>
        <g opacity="0.54">
            <path d="M590,15a.9.9,0,0,0,1-1,1.3,1.3,0,0,0-1-1,1.1,1.1,0,0,0-.9,1,.9.9,0,0,0,.8,1Z"
                transform="translate(0 0.1)" fill="#ededeb" />
        </g>
        <g opacity="0.54">
            <path
                d="M693.3,222.6a2,2,0,0,0-.2,1.1,2.1,2.1,0,0,0,1.6,2.5,2.1,2.1,0,0,0,2.5-1.6,1.4,1.4,0,0,0,0-.9h0a2,2,0,0,0-.2-1.1,2,2,0,0,0-1.8-1.5,2,2,0,0,0-1.9,1.5Z"
                transform="translate(0 0.1)" fill="#ededeb" />
        </g>
        <g opacity="0.54">
            <path d="M500.9,355.4a1.1,1.1,0,0,0,1.1-1.1h0a1.1,1.1,0,1,0-2.1-.5.6.6,0,0,0,0,.6A.9.9,0,0,0,500.9,355.4Z"
                transform="translate(0 0.1)" fill="#ededeb" />
        </g>
        <g opacity="0.54">
            <path
                d="M370.6,359.4h0a2.7,2.7,0,0,0,.1-3.8h-.1v-.2a2.9,2.9,0,0,0-4.1-.1,3.1,3.1,0,0,0-.9,2.2,2.9,2.9,0,0,0,1.4,2.5,3,3,0,0,0,3.6-.4Z"
                transform="translate(0 0.1)" fill="#ededeb" />
        </g>
        <g opacity="0.54">
            <path d="M377.4,340.6c.6-.1,1.1-.6,1-1.1a1,1,0,0,0-2,0A1.1,1.1,0,0,0,377.4,340.6Z"
                transform="translate(0 0.1)" fill="#ededeb" />
        </g>
        <g opacity="0.54">
            <path d="M338.2,357.1a.4.4,0,1,0-.4-.4h0A.4.4,0,0,0,338.2,357.1Z" transform="translate(0 0.1)"
                fill="#ededeb" />
        </g>
        <g opacity="0.54">
            <path d="M587.7,339.8c.1,0,.3-.2.2-.3s-.1-.3-.2-.3a.3.3,0,1,0,0,.6Z" transform="translate(0 0.1)"
                fill="#ededeb" />
        </g>
        <g opacity="0.54">
            <path
                d="M700.5,270a1.1,1.1,0,0,0,1.1-1.1h0a1.3,1.3,0,0,0-1.1-1.2,1.2,1.2,0,0,0-1.1,1.3h0a1.1,1.1,0,0,0,1.1,1.1Z"
                transform="translate(0 0.1)" fill="#ededeb" />
        </g>
        <g opacity="0.54">
            <path
                d="M496.2,239.5a1.4,1.4,0,0,0,1.5-1.3v-.3a1.7,1.7,0,0,0-1.5-1.6,1.7,1.7,0,0,0-1.6,1.7A1.7,1.7,0,0,0,496.2,239.5Z"
                transform="translate(0 0.1)" fill="#ededeb" />
        </g>
        <g opacity="0.54">
            <path
                d="M369.2,284.6a.4.4,0,0,0,.1-.3,1.4,1.4,0,0,0-.4-1.5c0-.1,0-.1-.1-.1h0a1.3,1.3,0,0,0-1.8,0h-.2a1.6,1.6,0,0,0-.3,1.5.4.4,0,0,0,.1.3,1.2,1.2,0,0,0,1.4,1h.3A1.2,1.2,0,0,0,369.2,284.6Z"
                transform="translate(0 0.1)" fill="#ededeb" />
        </g>
        <g opacity="0.54">
            <path d="M654.8,217.7a.6.6,0,0,0,.5-.6.5.5,0,0,0-.5-.5.6.6,0,0,0-.6.6C654.3,217.4,654.5,217.7,654.8,217.7Z"
                transform="translate(0 0.1)" fill="#ededeb" />
        </g>
        <g opacity="0.54">
            <path
                d="M716.6,215.4a1.7,1.7,0,0,0-.2-1.2,1.3,1.3,0,0,0-1.7-.5,1,1,0,0,0-.4.5,1.7,1.7,0,0,0-.2,1.2,1.2,1.2,0,0,0,1.2,1.2h.1a1.2,1.2,0,0,0,1.2-1.2Z"
                transform="translate(0 0.1)" fill="#ededeb" />
        </g>
        <g opacity="0.54">
            <path d="M710,170.8a1.3,1.3,0,0,0,1.1-1.2,1.1,1.1,0,0,0-2.2,0h0A1.1,1.1,0,0,0,710,170.8Z"
                transform="translate(0 0.1)" fill="#ededeb" />
        </g>
        <g opacity="0.54">
            <path d="M338.8,63.1a.4.4,0,1,0-.4-.4h0A.4.4,0,0,0,338.8,63.1Z" transform="translate(0 0.1)"
                fill="#ededeb" />
        </g>
        <g opacity="0.54">
            <path
                d="M348.1,18.1l.5-.2a1.9,1.9,0,0,0,.6-2.4l-.6-.6-.5-.2a1.8,1.8,0,0,0-2,0,2.1,2.1,0,0,0-.7,2.7l.7.7A2.3,2.3,0,0,0,348.1,18.1Z"
                transform="translate(0 0.1)" fill="#ededeb" />
        </g>
        <g opacity="0.54">
            <path d="M399.4,52.5a.9.9,0,0,0,1-1h0a1.2,1.2,0,0,0-1-1.1,1.3,1.3,0,0,0-1.1,1.2A1.1,1.1,0,0,0,399.4,52.5Z"
                transform="translate(0 0.1)" fill="#ededeb" />
        </g>
        <g opacity="0.54">
            <path d="M389.3,104.7a1.1,1.1,0,0,0,1-1,1,1,0,1,0-2,0,.9.9,0,0,0,.8,1Z" transform="translate(0 0.1)"
                fill="#ededeb" />
        </g>
        <g opacity="0.54">
            <path d="M494.3,23.6h.3c1.8-.8,1.8-4,0-4.7l-.3-.2C488.8,16.3,488.8,26,494.3,23.6Z"
                transform="translate(0 0.1)" fill="#ededeb" />
        </g>
        <path
            d="M516.4,214.8c-36.5,2.6-125.2,11.6-161.7,14.3-8.8.6-18.5,1.6-24.3,7.3-10.2,9.9-2.9,27.2-7.5,38.5S304.3,292,291.4,296s-26.5,7.2-34.6,18.2c-4.7,6.4-5.7,13.9-6.4,21.6-.5,5.5-.9,11.2-2.4,16.5-.2.6-.3,1.2-.5,1.7l-.3.8a3.6,3.6,0,0,1-.4.9l-.3.8-.3.8c-.7,1.4-1.4,2.8-2.2,4.1l-.5.7a13,13,0,0,1-1,1.5l-.5.7-.7.9-.9,1.1-.3.3-.8,1-.5.5-1,1.1a6.9,6.9,0,0,1-1.3,1.1c-1,1-2.1,1.9-3.2,2.8l-1.3,1-1.5,1H26.5V-.1H216.6c12.7,6.4,22.9,16.9,26.4,29.4,4.7,16.7-.5,36.2,12.6,49.6s39.1,12.8,51,26.9a21.9,21.9,0,0,1,3.1,4.6c9.9,18.7-7.3,44.6,3.3,64.2,9.4,17.4,35.3,21.3,57.3,23l67.7,5.1c6.5.5,81,4.3,86.6,7.2S518.6,209.4,516.4,214.8Z"
            transform="translate(0 0.1)" fill="#fff" />
        <path
            d="M438.5,212.7l-124.1,5-8.8,41.5,17.8,14.6c-.6-4.5,1.3-10.4,2.4-14.7a14.4,14.4,0,0,1,8.8-10.5c7.7-2.9,16.1,1.7,24.3,3.2,10.1,1.9,21.2-1.2,28.1-7.8,5.2-5,8.4-11.7,15.1-14.9s14.4-1.7,21.7-2.3,15.7-5.1,14.7-11.4Z"
            transform="translate(0 0.1)" fill="#fff" />
        <path
            d="M307.9,125.2c-3.8,6.6-1.4,14.8,2.5,21.3s9.1,11.5,17.5,12.6c10.5,1.4,22-2.6,31.4,1.7,12,5.5,12.9,20.6,22.6,28.9,6.1,5.2,14.9,7.1,23.2,8.7l78.7,15.4-152.7-3.9-32.7-22.4Z"
            transform="translate(0 0.1)" fill="#fff" />
        <path
            d="M304.4,312.3c-6.9-1.4-14.6-.5-20.1,3.4s-8.3,10.9-5.7,16.6,11,9.3,17.4,6.7c4.1-1.6,7.7-5.4,12.1-4.6,2.2.3,4,1.8,6.2,2.5,4.9,1.3,10.3-2.7,10.7-7.2s-2.6-9.9-6.9-12.3a42,42,0,0,0-13.7-5.1Z"
            transform="translate(0 0.1)" fill="#fff" />
        <path
            d="M309.7,110.4a6.6,6.6,0,0,1-.8,2.1c-2.4-9.8-19-13.5-29.5-17.6s-17.9-9.1-28.7-12.7-21.4-9.6-25.7-19-2.2-17.1-2.9-25.7a28,28,0,0,0-3.2-11.6l-1.4-2.1c-2.5-3.6-6-6.7-8.5-10.3S204.6,4,207-.1h26.5l3.3,2.2c13,8.6,27.2,18.9,28.6,33.1.4,4.8-.3,10.5,3.9,13.6,2.5,1.9,5.5,1.6,8.5,4.3s2.4,7,.8,10.5-4,6.9-4,10.6c-.2,5.8,5.5,10.6,11.3,13.3s12.5,4.2,17.9,7.6S311.1,105.2,309.7,110.4Z"
            transform="translate(0 0.1)" fill="#fde17e" />
        <path
            d="M447.4,222.4c-5.3-2.5-11.8-5-17.1-2.5s-5.9,6.3-9.9,8.3-11.6.7-16.8,2.7-7.7,7.9-5.4,12.3,9.1,6.6,14.2,4.6,9.4-9.5,16-9.2c2.1.1,4.3,1,6.4.6s3.6-2.3,4.5-4.2,1.4-3.8,2.8-5.3,4.1-2.5,5.9-1.3c1.3-.4.3-2.6-1-2.1Z"
            transform="translate(0 0.1)" fill="#f08299" />
        <path
            d="M445.8,228.3a8.4,8.4,0,0,0,9.7,2.6c2.1-.8,3.8-2.5,6-2.4a15.8,15.8,0,0,1,3.7,1.1,7.3,7.3,0,0,0,7.6-2.9,5.8,5.8,0,0,0-1.4-7.2,9.2,9.2,0,0,0-8.3-1.7c-2.5.8-4.6,2.5-7.2,2.7s-7-2.8-10.9-3.2a7.6,7.6,0,0,0-7.6,3.7,6.1,6.1,0,0,0,2,7.4,8.5,8.5,0,0,0,8.7.3Z"
            transform="translate(0 0.1)" fill="#7443de" />
        <path
            d="M463.9,214.3a4.8,4.8,0,0,1,5.3,1,3.3,3.3,0,0,1-.8,4.5l-.2.2a4.4,4.4,0,0,1-5.3-.7,3.1,3.1,0,0,1,.3-4.4h.1a.2.2,0,0,1,.2-.2h0Z"
            transform="translate(0 0.1)" fill="#59d2e5" />
        <path
            d="M353.3,251a16.1,16.1,0,0,0-15,1.9,11.7,11.7,0,0,0-4.4,12.6c1.5,4.9,6.5,9.9,3.8,14.5-1.9,3-6.6,4-8.6,7s-1,5.3-1.5,8a12.7,12.7,0,0,1-9.4,9.9c-5,1.4-10.9-.1-14-3.8a9.5,9.5,0,0,1,.3-12.6c3.7-3.7,10.2-4.9,12.6-9.3s.5-7.3.3-11.1c-.4-7.2,4.1-14.5,11.2-18.1a26.1,26.1,0,0,1,23.7.3Z"
            transform="translate(0 0.1)" fill="#73367f" />
        <path
            d="M334.3,258.6c-.5,5.9-2.6,10.4-7.3,12.3s-10.3,1.6-15.6,1.4-10.8-.2-15.3,2.1c-6.4,3.4-9.3,10.8-16.3,13.1-3.8,1.2-8.1.6-12.2,1-6,.5-12,3.5-14.4,8.4a10.2,10.2,0,0,0,4.4,13.6h.4c6.2,2.8,13.6-.4,19.1-4.1s10.7-8.4,17.6-9c3.4-.3,7.1.3,9.9-1.4s3.4-8.6,6.8-12,9.2-2.8,13.7-4.8c8.1-3.4,9.2-12.9,9.2-20.7Z"
            transform="translate(0 0.1)" fill="#fde17e" />
        <path
            d="M316,156.9c-5.7-2-3.7-5.1-5.4-8.1s-9.1-2.7-13.8-3.5-9.6-1.7-13.7-4-7.1-6.2-6.8-10.4,5.2-8,9.9-7c6.2,1.4,7.4,9.1,13,11.9s13.3-.3,19,2.5,7.1,12,14,13.8c4.3,1.2,8.7-1.3,12.9-2.8s10.2-1.9,12.1,1.7-.1,5.3-2.4,6.9-5.3,2.1-8.2,2.5a67.8,67.8,0,0,1-30.6-3.5Z"
            transform="translate(0 0.1)" fill="#59d2e5" />
        <path
            d="M404.1,230c-4-.2-7.4,2.1-10.7,4.1s-7.3,3.9-11.1,2.7a6.7,6.7,0,0,1-4.2-8.5h0a6.1,6.1,0,0,1,.7-1.4c2.3-3.5,7.2-5,11.7-4.6,2.7.3,5.2,1.1,7.8,1.1s7.7-2,11.1-3.9,7.1-3.9,11.1-3.9,8.5,2.6,8.2,6.1-3.8,5.1-7.1,6.3c-6.4,2.3-10.6,2.4-17.5,2Z"
            transform="translate(0 0.1)" fill="#59d2e5" />
        <path
            d="M326,227.6c-5.6-1.6-12.3.5-15.4,4.9s-2.8,8.2-5.9,11.5-8.6,4.2-13.4,5.3-10.1,3.2-11.5,7.4,2.8,9.4,8.1,10.5,10.8-.7,15.2-3.5,8-6.4,12.1-9.5,8.7-5.6,12.1-9.2,5.6-8.7,3.6-13-9.2-6.7-13-3.4Z"
            transform="translate(0 0.1)" fill="#fcbc00" />
        <path
            d="M92.2,337.4l-.6,5.1c-6-3.7-14.1-2.5-20.9-.1s-13.2,5.9-20.4,6.5c-10.5.9-21.7-6.5-24.4-14.1s-.2-16.2-4.3-23.3S8,300.9,1.4,295.7L0,294.5V258.9a27.4,27.4,0,0,1,4.2-2.1c8.1-3,18.7-.6,23.4,5.9,2.1,3,3,6.6,5.2,9.6,8,10.3,29.6,8.7,34.2,20.5,2.2,5.5-.8,11.4-1.3,17.3C64.7,322.7,82.6,330.6,92.2,337.4Z"
            transform="translate(0 0.1)" fill="#fde17e" />
        <path
            d="M131.8,375.2H0V295.7a40.3,40.3,0,0,1,26.5,1.9c8.6,3.5,15.7,9.8,18.5,17.8s2.8,15.1,8.1,19.7,13.8,5,21.2,4.1,15-2.7,22.3-1.3c12.2,2.4,20.8,14.2,26.2,22.2A100.3,100.3,0,0,1,131.8,375.2Z"
            transform="translate(0 0.1)" fill="#f08299" />
        <path
            d="M216.4,41.1c7-4.8-3.2-13.9-12.3-16.6s-19-2-28.5-2.7C158.5,20.4,142,14.1,129.4,4l-5-4.1h66.2c1.2,4.1,2.5,8.3,5.4,11.6s9,5.9,14.1,8.2,10.3,5.1,12.5,9.7S222.1,40.6,216.4,41.1Z"
            transform="translate(0 0.1)" fill="#73367f" />
        <path
            d="M250.4,335.8c-.5,5.5-.9,11.2-2.4,16.5-.2.6-.3,1.2-.5,1.7l-.3.8a3.6,3.6,0,0,1-.4.9l-.3.8-.3.8c-.7,1.4-1.4,2.8-2.2,4.1l-.5.7a13,13,0,0,1-1,1.5l-.5.7-.7.9-.9,1.1-.3.3-.8,1-.5.5-1,1.1a6.9,6.9,0,0,1-1.3,1.1c-1,1-2.1,1.9-3.2,2.8l-1.3,1-1.5,1H172.4c3.3-3,6.9-5.8,10.5-8.5,7.4-5.5,15.4-11.4,25.1-12.7,6.5-1,13.2.2,19.8-.6,11.6-1.4,19.7-9,22.1-19A12.1,12.1,0,0,0,250.4,335.8Z"
            transform="translate(0 0.1)" fill="#59d2e5" />
    </g>
</svg>